<svg xmlns="http://www.w3.org/2000/svg" xmlns:xlink="http://www.w3.org/1999/xlink" width="40" zoomAndPan="magnify" viewBox="0 0 30 30.000001" height="40" preserveAspectRatio="xMidYMid meet" version="1.0"><defs><clipPath id="9be6ef5a55"><path d="M 0.484375 0 L 29.515625 0 L 29.515625 29.03125 L 0.484375 29.03125 Z M 0.484375 0 " clip-rule="nonzero"/></clipPath></defs><g clip-path="url(#9be6ef5a55)"><path fill="#1d9bf0" d="M 25.886719 29.03125 L 4.113281 29.03125 C 2.109375 29.03125 0.484375 27.40625 0.484375 25.402344 L 0.484375 3.628906 C 0.484375 1.625 2.109375 0 4.113281 0 L 25.886719 0 C 27.890625 0 29.515625 1.625 29.515625 3.628906 L 29.515625 25.402344 C 29.515625 27.40625 27.890625 29.03125 25.886719 29.03125 Z M 25.886719 29.03125 " fill-opacity="1" fill-rule="nonzero"/></g><path fill="#ffffff" d="M 11.632812 21.890625 C 18.476562 21.890625 22.222656 16.214844 22.222656 11.300781 C 22.222656 11.140625 22.222656 10.980469 22.214844 10.820312 C 22.941406 10.300781 23.570312 9.640625 24.074219 8.890625 C 23.40625 9.1875 22.6875 9.382812 21.929688 9.480469 C 22.699219 9.023438 23.289062 8.289062 23.570312 7.417969 C 22.851562 7.847656 22.054688 8.152344 21.207031 8.316406 C 20.523438 7.59375 19.558594 7.140625 18.492188 7.140625 C 16.4375 7.140625 14.769531 8.8125 14.769531 10.867188 C 14.769531 11.15625 14.804688 11.4375 14.863281 11.714844 C 11.769531 11.5625 9.027344 10.074219 7.191406 7.824219 C 6.871094 8.375 6.691406 9.015625 6.691406 9.695312 C 6.691406 10.988281 7.351562 12.128906 8.34375 12.796875 C 7.734375 12.773438 7.160156 12.605469 6.660156 12.332031 C 6.660156 12.347656 6.660156 12.359375 6.660156 12.382812 C 6.660156 14.183594 7.945312 15.691406 9.644531 16.03125 C 9.332031 16.121094 9.003906 16.164062 8.664062 16.164062 C 8.425781 16.164062 8.191406 16.140625 7.96875 16.097656 C 8.4375 17.578125 9.816406 18.652344 11.445312 18.683594 C 10.167969 19.683594 8.5625 20.277344 6.820312 20.277344 C 6.523438 20.277344 6.226562 20.265625 5.933594 20.226562 C 7.574219 21.273438 9.535156 21.890625 11.632812 21.890625 " fill-opacity="1" fill-rule="nonzero"/></svg>